<svg xmlns="http://www.w3.org/2000/svg" viewBox="0 0 163.964 726.617"><path d="M40.304 725.93c45.8 0 51.983-49.235 84.959-49.235 11.45 0 15.572 5.038 15.572 13.053s-4.122 13.053-15.572 13.053h-11.45v23.816h9.847c25.648 0 40.3-12.824 40.3-37.556s-14.656-37.556-40.3-37.556c-45.8 0-51.983 49.235-84.959 49.235-11.45 0-15.8-4.58-15.8-12.595s4.351-12.6 15.8-12.6h6.641v-23.811h-5.038c-25.648 0-40.3 12.6-40.3 37.1s14.652 37.096 40.3 37.096zm121.828-95.722v-25.19H1.832v25.19zm0-50.38v-39.844c0-25.19-13.969-37.556-39.617-37.556H41.449c-25.648 0-39.617 12.366-39.617 37.556v39.844zm-137.4-39.388c0-8.015 4.122-12.824 15.572-12.824h83.356c11.45 0 15.572 4.809 15.572 12.824v14.2h-114.5zm0-86.1v-43.51h-22.9v68.7h160.3v-68.7h-22.9v43.51H92.287v-34.579h-22.9v34.575zm137.4-130.992v-33.434l-160.3-17.862v21.984l127.324 13.053L1.832 319.684v24.274l126.408 12.137L1.832 369.606v24.5l160.3-17.859v-34.579l-85.417-9.16zm-160.3-123.2v36.867l160.3 25.648v-23.129l-29.083-4.35v-30.915l29.083-4.352v-25.419zm28.4 19.694l81.066-12.137v24.272zm131.9-76.258v-25.19h-53.128L1.832 86.562v24.045l73.051 19.236-73.051 19.241v26.33l107.172-31.83zM40.304 74.426c45.8 0 51.983-49.235 84.959-49.235 11.45 0 15.572 5.038 15.572 13.053s-4.122 13.053-15.572 13.053h-11.45v23.815h9.847c25.648 0 40.3-12.824 40.3-37.556S149.304 0 123.66 0c-45.8 0-51.983 49.235-84.959 49.235-11.45 0-15.8-4.58-15.8-12.6s4.351-12.595 15.8-12.595h6.641V.224h-5.038c-25.648 0-40.3 12.6-40.3 37.1s14.652 37.101 40.3 37.101z" fill="#fff"/></svg>