<svg xmlns="http://www.w3.org/2000/svg" viewBox="0 0 1741.977 393.084"><path d="M1.647 96.624c0 109.8 118.035 124.623 118.035 203.679 0 27.45-12.078 37.332-31.293 37.332s-31.293-9.882-31.293-37.332v-27.45h-57.1v23.607c0 61.488 30.744 96.624 90.036 96.624s90.041-35.136 90.041-96.624c0-109.8-118.035-124.623-118.035-203.679 0-27.45 10.98-37.881 30.195-37.881s30.195 10.431 30.195 37.881v15.921h57.1V96.624C179.528 35.136 149.328 0 90.59 0S1.647 35.136 1.647 96.624zm229.482 292.068h60.39V4.392h-60.39zm120.78 0h95.526c60.39 0 90.038-33.489 90.038-94.977V99.369c0-61.488-29.646-94.977-90.036-94.977h-95.528zm94.428-329.4c19.215 0 30.744 9.882 30.744 37.332V296.46c0 27.45-11.529 37.332-30.744 37.332h-34.038v-274.5zm206.424 0h104.312v-54.9h-164.7v384.3h164.7v-54.9H652.761V221.247h82.9v-54.9h-82.9zm314.028 329.4h80.154l42.822-384.3h-52.7l-31.292 305.244-30.2-305.244h-58.194l-29.1 303.048L855.891 4.392h-58.743l42.825 384.3h82.9l21.96-204.777zm295.362-384.3h-88.389l-61.489 384.3h55.449l10.431-69.723h74.12l10.427 69.723h60.939zm-47.214 68.076l29.1 194.346h-58.194zm182.817 316.224h60.39V261.324l76.311-256.932h-57.645l-46.116 175.131-46.116-175.131h-63.135l76.311 256.932zm165.8-292.068c0 109.8 118.035 124.623 118.035 203.679 0 27.45-12.078 37.332-31.293 37.332s-31.293-9.882-31.293-37.332v-27.45h-57.1v23.607c0 61.488 30.744 96.624 90.036 96.624s90.034-35.136 90.034-96.624c0-109.8-118.035-124.623-118.035-203.679 0-27.45 10.98-37.881 30.195-37.881s30.195 10.431 30.195 37.881v15.921h57.1V96.624c0-61.488-30.2-96.624-88.938-96.624s-88.938 35.136-88.938 96.624z" fill="currentColor"/></svg>